<?xml version="1.0" standalone="no"?><!DOCTYPE svg PUBLIC "-//W3C//DTD SVG 1.1//EN" "http://www.w3.org/Graphics/SVG/1.1/DTD/svg11.dtd"><svg t="1597027671458" class="icon" viewBox="0 0 1024 1024" version="1.1" xmlns="http://www.w3.org/2000/svg" p-id="3008" xmlns:xlink="http://www.w3.org/1999/xlink" width="200" height="200"><defs><style type="text/css"></style></defs><path d="M367.09999999 750.49999999q17.10000002 0 32.40000003 6.3t26.99999999 17.55000001 18 26.54999999 6.29999999 32.4-6.29999999 32.4-18 26.55000001-26.99999999 18-32.40000003 6.75q-18 0-32.84999999-6.75t-26.54999999-18-18.00000002-26.55000001-6.29999999-32.4 6.29999999-32.4 18.00000002-26.54999999 26.54999999-17.55000001 32.84999999-6.3zM741.50000001 752.29999999q17.10000002 0 32.84999999 6.30000002t27.00000001 17.54999999 18 26.54999999 6.75 32.4-6.75 32.4-18 26.55000003-27.00000001 17.99999999-32.85000001 6.74999998-32.40000001-6.74999998-26.54999999-17.99999999-17.99999999-26.55000003-6.75000001-32.4 6.75000001-32.4 17.99999999-26.54999999 26.54999999-17.54999999 32.40000001-6.30000002zM892.70000001 241.09999998q25.2 0 39.14999999 6.75000002t19.8 16.65000001 5.40000001 21.14999999-3.15000002 19.35000001-11.24999998 33.3-19.35000002 55.34999999-21.14999999 59.85000002-15.75 46.79999997q-11.70000001 36-29.70000001 49.95000001t-44.09999999 13.95l-30.6 0-58.50000001 0-76.49999999 0-83.70000001 0-223.19999998 0 13.49999998 81 453.60000002 0q43.20000001 0 43.19999999 36.90000001 0 18-8.55 31.04999999t-33.74999998 13.05l-43.20000001 0-83.70000001 0-103.50000001 0-105.29999999 0-86.39999998 0-49.50000003 0q-18 0-30.14999999-8.09999999t-20.25000001-21.15000002-13.04999999-28.34999999-7.64999999-28.8q-0.90000001-5.4-4.95000001-26.09999999t-9.89999999-51.75000001-13.05000002-69.3-14.4-76.94999999q-17.10000002-90.90000001-38.69999999-202.49999999l-67.50000001 0q-13.49999999 0-22.49999997-6.75000002t-14.85000002-16.2-8.09999999-20.25-2.25000001-19.8q0-18 12.14999999-29.69999998t32.85000001-11.70000002l19.8 0 17.99999999 0 22.5 0 30.6 0q18 0 28.8 5.4t17.10000001 13.50000001 9 17.1 4.49999998 15.3q1.8 7.2 3.60000001 20.24999999t3.60000002 26.55000001q2.70000001 16.2 5.39999998 34.20000001l615.60000002 0z" fill="#8a8a8a" p-id="3009"></path></svg>